#N canvas 150 513 1048 507 10;
#X obj 53 252 dropdown_lua;
#A saved foo bar and\ a\ lot\ more;
#X msg 49 47 set 1 2 3 4;
#X listbox 53 367 20 0 0 0 - - - 0;
#X msg 283 73 edit;
#X obj 368 44 hsl 136 16 8 300 0 0 empty empty empty -2 -8 0 10 #fcfcfc #000000 #000000 0 1;
#X floatatom 365 65 5 0 0 0 - - - 0;
#X obj 518 44 hsl 136 16 0 127 0 0 empty empty empty -2 -8 0 10 #fcfcfc #000000 #000000 0 1;
#X floatatom 515 65 5 0 0 0 - - - 0;
#X obj 668 44 hsl 136 16 0 127 0 0 empty empty empty -2 -8 0 10 #fcfcfc #000000 #000000 0 1;
#X floatatom 665 65 5 0 0 0 - - - 0;
#X msg 665 85 fontsize \$1;
#X msg 365 85 width \$1;
#X msg 515 85 lineheight \$1;
#X msg 222 74 reload;
#X msg 111 74 set 1;
#X msg 70 74 set;
#X obj 177 71 bng 16 250 50 0 empty empty empty 0 -8 0 10 #fcfcfc #000000 #000000;
#X msg 142 47 set foo bar and\ a\ lot\ more;
#X msg 368 168 fgcolor \$1 \$2 \$3;
#X msg 488 168 bgcolor \$1 \$2 \$3;
#X obj 667 117 bng 16 250 50 0 empty empty empty 0 -8 0 10 #fcfcfc #000000 #000000;
#N canvas 92 117 977 536 random 0;
#X obj 37 37 inlet;
#X obj 38 124 random 256;
#X obj 108 124 random 256;
#X obj 178 124 random 256;
#X obj 248 124 random 256;
#X obj 318 124 random 256;
#X obj 388 124 random 256;
#X obj 458 124 random 256;
#X obj 528 124 random 256;
#X obj 598 124 random 256;
#X obj 38 175 pack f f f;
#X obj 248 175 pack f f f;
#X obj 458 175 pack f f f;
#X obj 38 196 outlet;
#X obj 248 196 outlet;
#X obj 458 196 outlet;
#X obj 668 124 random 256;
#X obj 738 124 random 256;
#X obj 808 124 random 256;
#X obj 668 175 pack f f f;
#X obj 668 196 outlet;
#X obj 38 99 t b b b b b b b b b b b b, f 135;
#X connect 0 0 21 0;
#X connect 1 0 10 0;
#X connect 2 0 10 1;
#X connect 3 0 10 2;
#X connect 4 0 11 0;
#X connect 5 0 11 1;
#X connect 6 0 11 2;
#X connect 7 0 12 0;
#X connect 8 0 12 1;
#X connect 9 0 12 2;
#X connect 10 0 13 0;
#X connect 11 0 14 0;
#X connect 12 0 15 0;
#X connect 16 0 19 0;
#X connect 17 0 19 1;
#X connect 18 0 19 2;
#X connect 19 0 20 0;
#X connect 21 0 1 0;
#X connect 21 1 2 0;
#X connect 21 2 3 0;
#X connect 21 3 4 0;
#X connect 21 4 5 0;
#X connect 21 5 6 0;
#X connect 21 6 7 0;
#X connect 21 7 8 0;
#X connect 21 8 9 0;
#X connect 21 9 16 0;
#X connect 21 10 17 0;
#X connect 21 11 18 0;
#X restore 667 138 pd random;
#X msg 603 168 hoverfgcolor \$1 \$2 \$3;
#X msg 743 168 hoverbgcolor \$1 \$2 \$3;
#X connect 0 0 2 0;
#X connect 1 0 0 0;
#X connect 3 0 0 0;
#X connect 4 0 5 0;
#X connect 5 0 11 0;
#X connect 6 0 7 0;
#X connect 7 0 12 0;
#X connect 8 0 9 0;
#X connect 9 0 10 0;
#X connect 10 0 0 0;
#X connect 11 0 0 0;
#X connect 12 0 0 0;
#X connect 13 0 0 0;
#X connect 14 0 0 0;
#X connect 15 0 0 0;
#X connect 16 0 0 0;
#X connect 17 0 0 0;
#X connect 18 0 0 0;
#X connect 19 0 0 0;
#X connect 20 0 21 0;
#X connect 21 0 18 0;
#X connect 21 1 19 0;
#X connect 21 2 22 0;
#X connect 21 3 23 0;
#X connect 22 0 0 0;
#X connect 23 0 0 0;
