#N canvas 629 196 1149 813 10;
#X declare -lib pdlua -path pdlua;
#X obj 703 142 declare -lib pdlua -path pdlua;
#X obj 703 115 namecanvas \$0-dropdown-wrapper;
#X obj 100 400 dropdown-gui;
#X obj 424 361 s \$0-dropdown-wrapper;
#X msg 424 340 coords 0 0 1 1 \$1 \$2 2 100 400;
#X obj 35 363 outlet;
#X obj 105 116 inlet;
#X obj 146 272 text define \$0-entries;
#X obj 301 272 text fromlist \$0-entries;
#X msg 148 244 click;
#X obj 276 299 route updated;
#X obj 255 321 text tolist \$0-entries;
#X obj 255 342 list prepend set;
#X obj 255 363 list trim;
#X msg 766 270 0;
#X obj 713 174 r \$0-kwarg-DONE;
#X obj 766 222 savestate;
#X obj 713 318 t b b;
#X obj 713 294 spigot 1;
#X msg 745 342 list dropdown \\\;;
#X obj 713 390 s \$0-edit;
#X obj 155 223 r \$0-edit;
#X obj 745 366 text fromlist \$0-entries;
#X obj 773 246 text fromlist \$0-entries;
#X obj 766 198 text tolist \$0-entries;
#X obj 272 215 t b a;
#X obj 300 244 list;
#X obj 107 143 route bang edit set;
#X connect 2 0 5 0;
#X connect 2 1 4 0;
#X connect 4 0 3 0;
#X connect 6 0 27 0;
#X connect 7 1 10 0;
#X connect 9 0 7 0;
#X connect 10 0 11 0;
#X connect 11 0 12 0;
#X connect 12 0 13 0;
#X connect 13 0 2 0;
#X connect 14 0 18 1;
#X connect 15 0 18 0;
#X connect 16 0 14 0;
#X connect 16 0 23 0;
#X connect 16 1 24 0;
#X connect 17 0 20 0;
#X connect 17 1 19 0;
#X connect 18 0 17 0;
#X connect 19 0 22 0;
#X connect 21 0 9 0;
#X connect 24 0 16 0;
#X connect 25 0 11 0;
#X connect 25 1 26 0;
#X connect 26 0 8 0;
#X connect 27 0 2 0;
#X connect 27 1 9 0;
#X connect 27 2 25 0;
#X connect 27 3 2 0;
#X coords 0 0 1 1 140 16 2 100 400;
